HIERARCHY
ROOT hip
{
	OFFSET 0.000000 0.000000 0.000000 
	CHANNELS 6 Xposition Yposition Zposition Xrotation Zrotation Yrotation
	JOINT abdomen
	{
		OFFSET 0.000000 3.402643 0.000000 
		CHANNELS 3 Xrotation Zrotation Yrotation
		JOINT chest
		{
			OFFSET 0.000000 8.438565 -0.680529 
			CHANNELS 3 Xrotation Zrotation Yrotation
			JOINT neck
			{
				OFFSET 0.000000 10.207942 -0.272212 
				CHANNELS 3 Xrotation Zrotation Yrotation
				JOINT head
				{
					OFFSET 0.000000 3.130431 0.000000 
					CHANNELS 3 Xrotation Zrotation Yrotation
					End Site
					{
						OFFSET 0.000000 3.130435 0.000000 
					}
				}
			}
			JOINT lCollar
			{
				OFFSET 3.470700 6.669187 -0.816635 
				CHANNELS 3 Yrotation Zrotation Xrotation
				JOINT lShldr
				{
					OFFSET 3.198488 0.000000 0.000000 
					CHANNELS 3 Zrotation Yrotation Xrotation
					JOINT lForeArm
					{
						OFFSET 10.139888 0.000000 0.000000 
						CHANNELS 3 Yrotation Zrotation Xrotation
						JOINT lHand
						{
							OFFSET 8.370511 0.000000 0.000000 
							CHANNELS 3 Zrotation Yrotation Xrotation
							End Site
							{
								OFFSET 4.083176 0.000000 0.000000 
							}
						}
					}
				}
			}
			JOINT rCollar
			{
				OFFSET -3.470700 6.669187 -0.816635 
				CHANNELS 3 Yrotation Zrotation Xrotation
				JOINT rShldr
				{
					OFFSET -3.198488 0.000000 0.000000 
					CHANNELS 3 Zrotation Yrotation Xrotation
					JOINT rForeArm
					{
						OFFSET -10.139888 0.000000 0.000000 
						CHANNELS 3 Yrotation Zrotation Xrotation
						JOINT rHand
						{
							OFFSET -8.370511 0.000000 0.000000 
							CHANNELS 3 Zrotation Yrotation Xrotation
							End Site
							{
								OFFSET -4.083176 0.000000 0.000000 
							}
						}
					}
				}
			}
		}
	}
	JOINT lThigh
	{
		OFFSET 5.308129 -1.633274 1.361059 
		CHANNELS 3 Xrotation Zrotation Yrotation
		JOINT lShin
		{
			OFFSET -2.041588 -20.007561 0.000000 
			CHANNELS 3 Xrotation Zrotation Yrotation
			JOINT lFoot
			{
				OFFSET 0.000000 -19.190928 -1.224953 
				CHANNELS 3 Xrotation Yrotation Zrotation
				End Site
				{
					OFFSET 0.000000 -2.449906 4.627600 
				}
			}
		}
	}
	JOINT rThigh
	{
		OFFSET -5.308129 -1.633274 1.361059 
		CHANNELS 3 Xrotation Zrotation Yrotation
		JOINT rShin
		{
			OFFSET 2.041588 -20.007561 0.000000 
			CHANNELS 3 Xrotation Zrotation Yrotation
			JOINT rFoot
			{
				OFFSET 0.000000 -19.190928 -1.224953 
				CHANNELS 3 Xrotation Yrotation Zrotation
				End Site
				{
					OFFSET 0.000000 -2.449906 4.627600 
				}
			}
		}
	}
}
MOTION
Frames: 9
Frame Time: 0.016667
26.274876 54.789219 85.594383 3.595353 -1.239925 1.279420 23.700546 -0.804718 -6.875690 -11.951496 5.091179 -5.793701 -28.306297 -6.035286 -15.449656 29.219027 7.719692 -14.991260 -8.295845 -5.285125 24.987967 -29.620935 -42.263119 -61.482857 -80.480598 -2.482183 -86.791496 17.772236 17.075905 5.318886 39.300159 5.743800 24.971329 30.705570 35.760868 -56.325874 73.168671 2.481925 -87.107262 -14.486635 2.582345 -0.858163 -33.957466 8.647941 16.726171 49.132877 -2.775310 -13.468904 -31.620054 3.155254 -10.271147 -41.900341 -7.480166 3.048105 94.560577 -1.162208 11.244726 -17.899860 7.622605 14.620668 
26.337614 55.219303 85.730476 3.373994 -2.089564 0.937945 23.700546 -0.804718 -6.875690 -11.951496 5.091179 -5.793701 -28.306297 -6.035286 -15.449656 29.219027 7.719692 -14.991260 -8.309953 -4.052703 24.980835 -28.858501 -42.594139 -62.274105 -81.525871 -2.480457 -86.767197 17.772236 17.075905 5.318886 38.685936 6.328860 24.975786 31.272758 36.364750 -55.106552 73.080643 2.473818 -87.124985 -14.486635 2.582345 -0.858163 -32.768513 9.323213 16.509573 47.629017 -2.774948 -13.303944 -31.620756 3.164495 -10.264112 -45.178211 -6.356913 2.539195 97.781342 -1.318200 11.484241 -17.732901 7.643271 14.424397 
26.374683 55.626842 85.873367 3.025442 -2.997885 0.596420 23.700546 -0.804718 -6.875690 -11.951496 5.091179 -5.793701 -28.306297 -6.035286 -15.449656 29.219027 7.719692 -14.991260 -8.284322 -2.650981 24.987122 -28.537188 -42.773483 -63.040604 -82.492928 -2.476017 -86.738419 17.772236 17.075905 5.318886 38.352242 7.325007 24.971519 31.853083 36.630207 -54.034065 72.904655 2.477190 -87.123871 -14.486635 2.582345 -0.858163 -31.364679 9.939900 16.412109 46.015167 -2.862835 -13.128384 -31.595638 3.214350 -10.214955 -48.009182 -5.116951 2.033569 100.227173 -1.395284 11.894342 -17.732038 7.660886 14.434512 
26.411707 56.034336 86.016266 2.687741 -3.906212 0.253982 23.700546 -0.804718 -6.875690 -11.951496 5.091179 -5.793701 -28.306297 -6.035286 -15.449656 29.219027 7.719692 -14.991260 -8.263620 -1.239111 24.996941 -28.199970 -42.947243 -63.827415 -83.459831 -2.464677 -86.719391 17.772236 17.075905 5.318886 38.006733 8.320256 24.972343 32.438511 36.881897 -52.948418 72.728661 2.480577 -87.122719 -14.486635 2.582345 -0.858163 -29.947968 10.554254 16.330288 44.439457 -2.952261 -12.955608 -31.597897 3.276891 -10.192491 -50.859833 -3.915669 1.452788 102.681114 -1.512695 12.303801 -17.742346 7.658116 14.445080 
26.422960 56.410973 86.177757 2.369754 -4.736323 -0.078665 23.700546 -0.804718 -6.875690 -11.951496 5.091179 -5.793701 -28.306297 -6.035286 -15.449656 29.219027 7.719692 -14.991260 -8.208144 0.031597 24.989014 -28.025782 -43.127911 -64.269081 -84.260521 -2.466515 -86.709473 17.772236 17.075905 5.318886 37.632336 9.207538 24.973896 32.839466 37.151440 -51.815907 72.474411 2.482991 -87.127441 -14.486635 2.582345 -0.858163 -28.655628 11.166891 16.345734 43.057579 -2.930129 -12.656380 -31.698177 3.270418 -10.291656 -53.338783 -2.578106 0.497379 103.997231 -1.600087 12.584205 -17.683126 7.816713 14.428264 
26.434179 56.787540 86.339279 2.060574 -5.576035 -0.403241 23.700546 -0.804718 -6.875690 -11.951496 5.091179 -5.793701 -28.306297 -6.035286 -15.449656 29.219027 7.719692 -14.991260 -8.151947 1.304738 24.971861 -27.863245 -43.312588 -64.691231 -85.051323 -2.469399 -86.708275 17.772236 17.075905 5.318886 37.257813 10.095153 24.981796 33.233810 37.409248 -50.681427 72.210396 2.485006 -87.131668 -14.486635 2.582345 -0.858163 -27.343727 11.777646 16.389267 41.664833 -2.907536 -12.386515 -31.796432 3.297959 -10.423778 -55.823750 -1.288713 -0.533149 105.331551 -1.698948 12.887684 -17.596842 7.970020 14.426397 
26.427914 57.125305 86.522705 1.594386 -6.259556 -0.472344 23.700546 -0.804718 -6.875690 -11.951496 5.091179 -5.793701 -28.306297 -6.035286 -15.449656 29.219027 7.719692 -14.991260 -8.512175 2.335379 24.973600 -28.118139 -43.229042 -64.960457 -85.920303 -2.465455 -86.681381 17.772236 17.075905 5.318886 36.829681 11.061759 24.977955 33.389839 37.493240 -49.684803 71.858231 2.495033 -87.138252 -14.486635 2.582345 -0.858163 -26.072920 12.352566 16.293865 40.415142 -3.036356 -12.344573 -31.797997 3.322003 -10.405492 -57.650013 -0.302755 -1.201957 105.637283 -1.768380 13.590985 -17.768957 7.968785 14.536251 
26.421618 57.462997 86.706131 1.128673 -6.943064 -0.531740 23.700546 -0.804718 -6.875690 -11.951496 5.091179 -5.793701 -28.306297 -6.035286 -15.449656 29.219027 7.719692 -14.991260 -8.859112 3.362766 24.974854 -28.374100 -43.149208 -65.243416 -86.789131 -2.463452 -86.663383 17.772236 17.075905 5.318886 36.403316 12.023203 24.974146 33.528610 37.573006 -48.698772 71.506042 2.505233 -87.144592 -14.486635 2.582345 -0.858163 -24.812250 12.927619 16.210848 39.172466 -3.182843 -12.325654 -31.791765 3.352861 -10.359801 -59.485062 0.654340 -1.897046 105.942802 -1.854185 14.283896 -17.909773 7.987862 14.630487 
26.402521 57.754169 86.904732 0.692382 -7.558295 -0.512392 23.700546 -0.804718 -6.875690 -11.951496 5.091179 -5.793701 -28.306297 -6.035286 -15.449656 29.219027 7.719692 -14.991260 -9.456840 4.425863 24.964201 -28.807423 -42.910980 -65.428612 -87.579758 -2.468167 -86.650558 17.772236 17.075905 5.318886 35.864979 13.024388 24.964102 33.695618 37.559601 -47.733780 71.232536 2.494718 -87.141922 -14.486635 2.582345 -0.858163 -23.572105 13.435446 16.284750 38.164230 -3.192848 -12.528571 -31.759296 3.336162 -10.266212 -60.873692 1.455166 -2.532243 105.286774 -1.804717 15.559036 -17.902557 7.813643 14.620081 
